<svg width="23" height="21" viewBox="0 0 23 21" fill="none" xmlns="http://www.w3.org/2000/svg">
<path fill-rule="evenodd" clip-rule="evenodd" d="M13.0999 7.17432C13.0999 6.553 13.6036 6.04932 14.2249 6.04932C14.8463 6.04932 15.3499 6.553 15.3499 7.17432C15.3499 7.79564 14.8463 8.29932 14.2249 8.29932C13.6036 8.29932 13.0999 7.79564 13.0999 7.17432ZM8.97495 6.04932C8.35362 6.04932 7.84995 6.553 7.84995 7.17432C7.84995 7.79564 8.35362 8.29932 8.97495 8.29932C9.59627 8.29932 10.0999 7.79564 10.0999 7.17432C10.0999 6.553 9.59627 6.04932 8.97495 6.04932ZM19.8499 12.0493C19.852 12.7773 19.7574 13.5024 19.5687 14.2056L21.6537 15.1168C21.9737 15.2626 22.1494 15.611 22.0765 15.9549C22.0036 16.2989 21.7015 16.546 21.3499 16.5493C21.2467 16.5496 21.1445 16.5282 21.0499 16.4865L19.0418 15.6118C17.6707 18.4771 14.7764 20.3008 11.5999 20.3008C8.42349 20.3008 5.52916 18.4771 4.15807 15.6118L2.14995 16.4865C2.05543 16.5282 1.95323 16.5496 1.84995 16.5493C1.49497 16.5491 1.18876 16.3001 1.11622 15.9526C1.04369 15.6051 1.2247 15.2543 1.54995 15.1121L3.6312 14.2056C3.44246 13.5024 3.34788 12.7773 3.34995 12.0493V11.2993H1.09995C0.685732 11.2993 0.349945 10.9635 0.349945 10.5493C0.349945 10.1351 0.685732 9.79932 1.09995 9.79932H3.34995V9.04932C3.34788 8.32129 3.44246 7.59621 3.6312 6.89307L1.54995 5.9865C1.29843 5.88324 1.12249 5.65194 1.09013 5.38198C1.05776 5.11202 1.17403 4.84569 1.39401 4.6859C1.61399 4.5261 1.90322 4.49788 2.14995 4.61213L4.15807 5.48682C5.52916 2.62151 8.42349 0.797855 11.5999 0.797855C14.7764 0.797855 17.6707 2.62151 19.0418 5.48682L21.0499 4.60932C21.4272 4.45445 21.859 4.62933 22.0221 5.00305C22.1853 5.37676 22.02 5.81234 21.6499 5.98369L19.5687 6.89775C19.7574 7.60089 19.852 8.32598 19.8499 9.054V9.804H22.0999C22.5142 9.804 22.8499 10.1398 22.8499 10.554C22.8499 10.9682 22.5142 11.304 22.0999 11.304H19.8499V12.0493ZM4.84995 9.79932H18.3499V9.04932C18.3499 5.32139 15.3279 2.29932 11.5999 2.29932C7.87202 2.29932 4.84995 5.32139 4.84995 9.04932V9.79932ZM10.8499 18.7562V11.2993H4.84995V12.0493C4.85403 15.4852 7.43571 18.371 10.8499 18.7562ZM18.3499 12.0493V11.2993H12.3499V18.7562C15.7642 18.371 18.3459 15.4852 18.3499 12.0493Z" fill="#FF4D4D"/>
</svg>
