<svg width="21" height="20" viewBox="0 0 21 20" fill="none" xmlns="http://www.w3.org/2000/svg">
<path fill-rule="evenodd" clip-rule="evenodd" d="M20.8999 9.79932C20.8973 7.31511 18.8841 5.3019 16.3999 5.29932H12.6687C12.3958 5.28338 7.64178 4.94869 3.11459 1.15182C2.66826 0.776964 2.04519 0.694606 1.51679 0.940615C0.988393 1.18663 0.650346 1.71646 0.649902 2.29932V17.2993C0.649982 17.8823 0.987892 18.4125 1.51637 18.6588C2.04484 18.905 2.66813 18.8227 3.11459 18.4478C6.65553 15.4778 10.3333 14.6265 11.8999 14.3884V17.3621C11.8993 17.8641 12.1498 18.3332 12.5674 18.6118L13.5987 19.299C14.0031 19.569 14.5133 19.6261 14.9675 19.4523C15.4217 19.2785 15.7634 18.8953 15.8843 18.4243L16.9877 14.2656C19.2268 13.9676 20.8994 12.0581 20.8999 9.79932ZM2.1499 17.2928V2.29932C6.16334 5.66588 10.2715 6.51807 11.8999 6.72807V12.8668C10.2733 13.0806 6.16615 13.9309 2.1499 17.2928ZM14.4312 18.0428V18.0531L13.3999 17.3659V14.2993H15.4249L14.4312 18.0428ZM16.3999 12.7993H13.3999V6.79932H16.3999C18.0568 6.79932 19.3999 8.14246 19.3999 9.79932C19.3999 11.4562 18.0568 12.7993 16.3999 12.7993Z" fill="#FF4D4D"/>
</svg>
