<svg width="15" height="18" viewBox="0 0 15 18" fill="none" xmlns="http://www.w3.org/2000/svg">
<path d="M1.36941 16.0002L0.00515747 0.699463H14.9949L13.6292 15.9973L7.49082 17.6995L1.36941 16.0002Z" fill="#E44D26"/>
<path d="M7.5 16.3989L12.396 15.024L13.5475 1.95032H7.5V16.3989Z" fill="#F16529"/>
<path d="M7.50006 7.6256H5.0489L4.87971 5.70389H7.50006V3.82751H2.85571L2.89976 4.33043L3.35489 9.50197H7.50006V7.6256ZM7.50006 12.4989L7.49167 12.5011L5.42923 11.9365L5.29709 10.4398H3.43809L3.69747 13.3865L7.49167 14.4532L7.50006 14.4511V12.4989Z" fill="#EBEBEB"/>
<path d="M7.49371 7.62557V9.50195H9.77429L9.55895 11.9358L7.49301 12.5003V14.4525L11.29 13.3864L11.318 13.0691L11.7535 8.12849L11.799 7.62487H11.2998L7.49371 7.62557ZM7.49371 3.82749V5.70387H11.9675L12.0045 5.2817L12.0891 4.33041L12.1332 3.82678L7.49371 3.82749Z" fill="white"/>
</svg>
