<svg width="15" height="16" viewBox="0 0 15 16" fill="none" xmlns="http://www.w3.org/2000/svg">
<g clip-path="url(#clip0_95_121)">
<path d="M0 0.699463H15V15.6995H0V0.699463Z" fill="#F7DF1E"/>
<path d="M3.94406 13.2345L5.09191 12.5398C5.31339 12.9324 5.51484 13.2647 5.99806 13.2647C6.46125 13.2647 6.75334 13.0835 6.75334 12.3787V7.58587H8.16293V12.3986C8.16293 13.8586 7.30711 14.5232 6.05847 14.5232C4.93084 14.5232 4.27629 13.9392 3.944 13.2344M8.92857 13.0834L10.0763 12.4189C10.3785 12.9123 10.7712 13.2748 11.4659 13.2748C12.05 13.2748 12.4224 12.9828 12.4224 12.58C12.4224 12.0967 12.0398 11.9255 11.3954 11.6437L11.043 11.4925C10.026 11.0597 9.35144 10.5159 9.35144 9.36806C9.35144 8.3108 10.1569 7.50525 11.4156 7.50525C12.3117 7.50525 12.9561 7.81744 13.4193 8.633L12.3217 9.33789C12.08 8.90494 11.8183 8.73378 11.4155 8.73378C11.0027 8.73378 10.7409 8.99558 10.7409 9.33789C10.7409 9.76076 11.0027 9.93203 11.6068 10.1938L11.9592 10.3448C13.1574 10.8584 13.832 11.3819 13.832 12.5599C13.832 13.8287 12.8352 14.5234 11.496 14.5234C10.1871 14.5234 9.3413 13.8991 8.92851 13.0835" fill="black"/>
</g>
<defs>
<clipPath id="clip0_95_121">
<rect width="15" height="15" fill="white" transform="translate(0 0.699463)"/>
</clipPath>
</defs>
</svg>
