<svg width="19" height="19" viewBox="0 0 19 19" fill="none" xmlns="http://www.w3.org/2000/svg">
<g clip-path="url(#clip0_95_141)">
<rect x="0.666626" y="0.699463" width="18" height="18" rx="5" fill="#FFECDA"/>
<path d="M11.9479 15.3245C12.0885 15.5276 12.1744 15.512 12.2838 15.4651C12.3931 15.4182 18.0181 13.5198 18.19 13.4574C18.3618 13.3949 18.3072 13.3402 18.2526 13.2542C18.1979 13.1682 16.3228 10.6214 16.229 10.4729C16.1353 10.3245 16.0884 10.3557 15.94 10.4026L9.97717 11.9542C9.97717 11.9542 11.8073 15.1213 11.9479 15.3245ZM18.6666 12.731V9.74992C17.9957 9.92866 17.1472 10.1546 16.8122 10.2437C17.3175 10.9199 18.1076 11.978 18.6666 12.731ZM16.8064 6.57208C16.7145 6.59296 14.6797 6.9607 14.5543 6.97736C14.4291 6.99409 14.4708 7.06511 14.521 7.13613L16.3116 9.59306C16.3116 9.59306 18.501 9.04989 18.6348 9.02064C18.6456 9.01825 18.6562 9.01572 18.6666 9.01312V8.68778C18.2686 8.18315 17.1844 6.80917 17.0906 6.68078C16.9779 6.52616 16.8984 6.55127 16.8064 6.57208Z" fill="#F35045"/>
<path d="M4.00332 2.71279C4.44397 2.69275 4.48418 2.79302 4.67775 3.0801L9.54124 11.2112L15.6566 9.74622C15.3177 9.26592 13.7796 7.08518 13.6309 6.87705C13.4638 6.64305 13.6351 6.53442 13.9067 6.4885C14.1783 6.44252 16.5181 6.04975 16.7186 6.0205C16.9192 5.99125 17.0781 5.92024 17.4039 6.313C17.5707 6.51396 18.136 7.21793 18.6665 7.87781V4.07446C18.6665 3.14479 18.3364 2.34984 17.6763 1.68967C17.0161 1.02958 16.2212 0.699463 15.2915 0.699463H4.04157C3.1119 0.699463 2.31695 1.02958 1.65679 1.68967C1.27816 2.06845 1.00866 2.49152 0.84729 2.95889C1.94964 2.86832 3.69493 2.72685 4.00332 2.71279Z" fill="#F35045"/>
<path d="M12.4994 16.4188C11.9837 16.575 11.7525 16.6525 11.4166 16.1838C11.165 15.8327 9.80453 13.3823 9.13748 12.1743C7.87502 12.505 5.56464 13.108 4.89836 13.2681C4.24811 13.4243 3.97038 13.0344 3.86358 12.7942C3.78869 12.6255 1.88225 8.51521 0.666626 5.87793V15.3244C0.666626 16.2542 0.996741 17.049 1.65683 17.7092C2.31699 18.3693 3.11194 18.6994 4.04161 18.6994H15.2915C16.2212 18.6994 17.0162 18.3693 17.6763 17.7092C18.3364 17.049 18.6665 16.2542 18.6665 15.3244V14.2148C17.2856 14.7199 12.8468 16.3135 12.4994 16.4188Z" fill="#F35045"/>
<path d="M4.91416 12.3212C5.09697 12.2794 8.52208 11.4597 8.59521 11.444C8.66833 11.4283 8.7153 11.3866 8.63697 11.2509C8.55864 11.1152 4.07133 3.36953 4.07133 3.36953C4.02991 3.29844 4.04172 3.27475 3.92915 3.28065C3.82882 3.286 1.28978 3.51254 0.70197 3.56162C0.684618 3.68591 0.673799 3.81103 0.669556 3.93646C1.26629 5.15814 4.69134 12.2219 4.71053 12.2794C4.73142 12.3421 4.73142 12.363 4.91416 12.3212Z" fill="#F35045"/>
</g>
<defs>
<clipPath id="clip0_95_141">
<rect x="0.666626" y="0.699463" width="18" height="18" rx="5" fill="white"/>
</clipPath>
</defs>
</svg>
