<svg width="26" height="22" viewBox="0 0 26 22" fill="none" xmlns="http://www.w3.org/2000/svg">
<mask id="mask0_95_84" style="mask-type:luminance" maskUnits="userSpaceOnUse" x="1" y="5" width="25" height="14">
<path d="M1.33492 11.6994C1.33492 15.2334 6.70762 18.0983 13.3349 18.0983C19.9622 18.0983 25.3349 15.2334 25.3349 11.6994C25.3349 8.16552 19.9622 5.30061 13.3349 5.30061C6.70762 5.30061 1.33492 8.16556 1.33492 11.6994Z" fill="white"/>
</mask>
<g mask="url(#mask0_95_84)">
<path d="M1.33492 11.6994C1.33492 15.2334 6.70762 18.0983 13.3349 18.0983C19.9622 18.0983 25.3349 15.2334 25.3349 11.6994C25.3349 8.16552 19.9622 5.30061 13.3349 5.30061C6.70762 5.30061 1.33492 8.16556 1.33492 11.6994Z" fill="url(#paint0_radial_95_84)"/>
</g>
<mask id="mask1_95_84" style="mask-type:luminance" maskUnits="userSpaceOnUse" x="0" y="4" width="26" height="15">
<path d="M0.75 4.69946H25.75V18.6995H0.75V4.69946Z" fill="white"/>
</mask>
<g mask="url(#mask1_95_84)">
<path d="M13.25 17.5172C19.6185 17.5172 24.7813 14.9125 24.7813 11.6994C24.7813 8.48635 19.6185 5.88166 13.25 5.88166C6.88154 5.88166 1.71878 8.48635 1.71878 11.6994C1.71878 14.9125 6.88154 17.5172 13.25 17.5172Z" fill="#777BB3"/>
</g>
<path d="M7.76969 12.4207C8.29335 12.4207 8.68428 12.3246 8.93158 12.1351C9.17629 11.9476 9.3453 11.6225 9.43389 11.1692C9.51648 10.7455 9.48501 10.4496 9.3404 10.29C9.19252 10.1269 8.87282 10.0442 8.39018 10.0442H7.55337L7.0894 12.4208H7.76965L7.76969 12.4207ZM5.03254 15.3482C4.99369 15.3482 4.9568 15.3309 4.93211 15.301C4.91989 15.2862 4.91111 15.269 4.90638 15.2505C4.90166 15.2319 4.9011 15.2126 4.90476 15.1938L6.13428 8.89599C6.14005 8.86646 6.15596 8.83985 6.17928 8.82072C6.2026 8.80158 6.23188 8.79112 6.2621 8.79112H8.91201C9.74482 8.79112 10.3647 9.01582 10.7543 9.46032C11.146 9.90667 11.267 10.5307 11.1138 11.3149C11.0515 11.6344 10.9443 11.9311 10.7953 12.1968C10.646 12.4628 10.4487 12.7088 10.2089 12.9283C9.92173 13.1959 9.59673 13.3899 9.24378 13.5041C8.89643 13.6167 8.45038 13.6739 7.91791 13.6739H6.84491L6.53849 15.2434C6.53272 15.2729 6.51683 15.2995 6.49351 15.3186C6.4702 15.3378 6.44093 15.3483 6.41071 15.3483H5.03254V15.3482Z" fill="black"/>
<path d="M7.66078 10.1739H8.39029C8.97276 10.1739 9.17515 10.3011 9.2439 10.3769C9.35796 10.5029 9.37949 10.7683 9.30618 11.1446C9.2238 11.5659 9.07111 11.8647 8.85227 12.0324C8.62823 12.2041 8.26399 12.2911 7.76981 12.2911H7.24741L7.66078 10.1739ZM8.91208 8.6615H6.26217C6.20173 8.66151 6.14318 8.68245 6.09654 8.72072C6.04991 8.759 6.0181 8.81223 6.00657 8.87129L4.77706 15.1692C4.76973 15.2067 4.77084 15.2454 4.7803 15.2825C4.78975 15.3195 4.80732 15.3541 4.83175 15.3836C4.85618 15.4131 4.88686 15.4368 4.92159 15.4531C4.95632 15.4694 4.99425 15.4779 5.03265 15.4779H6.41069C6.47114 15.4779 6.5297 15.457 6.57634 15.4187C6.62298 15.3804 6.6548 15.3272 6.66633 15.2681L6.95227 13.8035H7.91798C8.46408 13.8035 8.9238 13.7442 9.2843 13.6274C9.65496 13.5074 9.99611 13.3041 10.2979 13.0231C10.5476 12.7944 10.7537 12.5378 10.909 12.2602C11.0644 11.9825 11.1768 11.6728 11.2419 11.3397C11.4031 10.5142 11.2721 9.85319 10.8525 9.37512C10.4371 8.90162 9.78422 8.66155 8.91217 8.66155M6.93157 12.5504H7.76981C8.32536 12.5504 8.73925 12.4463 9.01113 12.2379C9.283 12.0294 9.46651 11.6815 9.56182 11.194C9.65297 10.726 9.61147 10.3957 9.43726 10.2032C9.26304 10.0108 8.91382 9.91459 8.39038 9.91459H7.4462L6.93161 12.5504M8.91221 8.92076C9.70939 8.92076 10.2909 9.12904 10.6565 9.54558C11.022 9.96212 11.132 10.5436 10.9862 11.2902C10.9262 11.5977 10.8247 11.8789 10.6817 12.1336C10.5388 12.3884 10.3518 12.6216 10.1209 12.8329C9.84572 13.0893 9.54003 13.272 9.20366 13.3808C8.86729 13.4899 8.4389 13.5443 7.91807 13.5443H6.73769L6.41087 15.2186H5.03283L6.26217 8.92076H8.91212" fill="white"/>
<path d="M14.2736 13.6739C14.2347 13.6739 14.1978 13.6566 14.1731 13.6267C14.1484 13.5968 14.1383 13.5576 14.1458 13.5196L14.6896 10.733C14.7414 10.468 14.7286 10.2777 14.6537 10.1974C14.6079 10.1482 14.4702 10.0658 14.0632 10.0658H13.0778L12.394 13.569C12.3883 13.5985 12.3723 13.6251 12.349 13.6443C12.3257 13.6634 12.2964 13.6739 12.2662 13.6739H10.899C10.8798 13.6739 10.8608 13.6696 10.8435 13.6615C10.8261 13.6533 10.8108 13.6414 10.7985 13.6267C10.7863 13.6119 10.7775 13.5947 10.7728 13.5762C10.7681 13.5576 10.7675 13.5383 10.7712 13.5195L12.0007 7.22168C12.0065 7.19215 12.0224 7.16553 12.0457 7.1464C12.069 7.12727 12.0983 7.11681 12.1285 7.11681H13.4957C13.5149 7.11681 13.5339 7.12104 13.5512 7.12919C13.5686 7.13735 13.584 7.14922 13.5962 7.16398C13.6084 7.17873 13.6172 7.19599 13.6219 7.21452C13.6266 7.23305 13.6272 7.25239 13.6235 7.27115L13.3268 8.79119H14.3868C15.1943 8.79119 15.7418 8.93292 16.0609 9.2245C16.3864 9.52196 16.4874 9.99752 16.3624 10.6383L15.7903 13.569C15.7846 13.5986 15.7687 13.6252 15.7453 13.6443C15.722 13.6635 15.6927 13.674 15.6625 13.674H14.2736L14.2736 13.6739Z" fill="black"/>
<path d="M13.4957 6.98715H12.1285C12.068 6.98715 12.0095 7.00808 11.9628 7.04635C11.9162 7.08463 11.8844 7.13787 11.8728 7.19694L10.6433 13.4948C10.636 13.5323 10.6371 13.571 10.6466 13.6081C10.656 13.6451 10.6736 13.6796 10.698 13.7091C10.7225 13.7386 10.7532 13.7624 10.7879 13.7787C10.8226 13.795 10.8606 13.8035 10.899 13.8035H12.2662C12.3266 13.8035 12.3852 13.7825 12.4318 13.7443C12.4784 13.706 12.5103 13.6528 12.5218 13.5937L13.1851 10.1954H14.0632C14.4695 10.1954 14.5548 10.2819 14.5583 10.2856C14.5829 10.3119 14.6153 10.4342 14.5618 10.7082L14.018 13.4948C14.0107 13.5323 14.0118 13.571 14.0212 13.6081C14.0307 13.6451 14.0483 13.6796 14.0727 13.7091C14.0971 13.7386 14.1278 13.7624 14.1625 13.7787C14.1973 13.795 14.2352 13.8035 14.2736 13.8035H15.6625C15.723 13.8035 15.7815 13.7825 15.8282 13.7443C15.8748 13.706 15.9066 13.6528 15.9182 13.5937L16.4902 10.663C16.6244 9.97507 16.5096 9.45897 16.1491 9.12902C15.805 8.81445 15.2286 8.66149 14.3869 8.66149H13.4848L13.7514 7.29584C13.7588 7.2583 13.7577 7.21962 13.7482 7.18255C13.7388 7.14549 13.7212 7.11096 13.6968 7.08146C13.6723 7.05195 13.6416 7.02819 13.6069 7.01188C13.5721 6.99556 13.5342 6.98711 13.4958 6.98711M13.4958 7.24637L13.169 8.92075H14.3869C15.1533 8.92075 15.6819 9.05392 15.9729 9.31992C16.2639 9.58592 16.3509 10.0173 16.2347 10.6135L15.6626 13.5442H14.2738L14.8176 10.7577C14.8795 10.4407 14.8567 10.2245 14.7493 10.1092C14.6418 9.99391 14.4131 9.93618 14.0633 9.93618H12.9705L12.2662 13.5442H10.8991L12.1286 7.24637H13.4958" fill="white"/>
<path d="M18.5256 12.4207C19.0493 12.4207 19.4402 12.3246 19.6875 12.1351C19.9322 11.9476 20.1012 11.6226 20.1899 11.1692C20.2725 10.7455 20.241 10.4496 20.0963 10.29C19.9485 10.1269 19.6288 10.0442 19.1461 10.0442H18.3093L17.8453 12.4208H18.5256L18.5256 12.4207ZM15.7886 15.3482C15.7497 15.3482 15.7128 15.3309 15.6881 15.301C15.6759 15.2862 15.6671 15.269 15.6624 15.2505C15.6577 15.2319 15.6571 15.2126 15.6608 15.1938L16.8903 8.89599C16.896 8.86646 16.912 8.83984 16.9353 8.8207C16.9586 8.80157 16.9879 8.79111 17.0181 8.79112H19.668C20.5009 8.79112 21.1207 9.01582 21.5104 9.46032C21.9021 9.90667 22.0229 10.5306 21.8699 11.3149C21.8075 11.6344 21.7003 11.9311 21.5512 12.1968C21.4019 12.4628 21.2047 12.7088 20.9648 12.9283C20.6777 13.1959 20.3527 13.3899 19.9997 13.5041C19.6524 13.6167 19.2063 13.6739 18.6739 13.6739H17.6007L17.2944 15.2434C17.2887 15.2729 17.2728 15.2995 17.2494 15.3187C17.2261 15.3378 17.1968 15.3483 17.1666 15.3483H15.7885L15.7886 15.3482Z" fill="black"/>
<path d="M18.4167 10.1739H19.1462C19.7287 10.1739 19.9311 10.3011 19.9998 10.3769C20.114 10.5029 20.1354 10.7683 20.0621 11.1446C19.9797 11.5659 19.827 11.8647 19.6082 12.0324C19.3841 12.2041 19.0199 12.2911 18.5257 12.2911H18.0034L18.4167 10.1739ZM19.668 8.6615H17.0181C16.9576 8.66151 16.8991 8.68245 16.8525 8.72072C16.8058 8.759 16.774 8.81223 16.7625 8.87129L15.533 15.1692C15.5257 15.2067 15.5268 15.2454 15.5362 15.2825C15.5457 15.3195 15.5633 15.3541 15.5877 15.3836C15.6121 15.4131 15.6428 15.4368 15.6775 15.4531C15.7123 15.4694 15.7502 15.4779 15.7886 15.4779H17.1666C17.2271 15.4779 17.2857 15.457 17.3323 15.4187C17.3789 15.3804 17.4108 15.3272 17.4223 15.2681L17.7082 13.8035H18.6739C19.22 13.8035 19.6797 13.7442 20.0402 13.6274C20.4109 13.5074 20.752 13.3041 21.0539 13.023C21.3036 12.7944 21.5091 12.5378 21.665 12.2602C21.8208 11.9825 21.9327 11.6728 21.9978 11.3397C22.159 10.5142 22.028 9.85315 21.6084 9.37507C21.193 8.90162 20.5402 8.66155 19.6681 8.66155M17.6875 12.5504H18.5257C19.0813 12.5504 19.4952 12.4463 19.767 12.2379C20.0389 12.0294 20.2224 11.6815 20.3177 11.194C20.409 10.726 20.3674 10.3957 20.1932 10.2032C20.0189 10.0108 19.6697 9.91459 19.1463 9.91459H18.2021L17.6876 12.5504M19.6681 8.92076C20.4653 8.92076 21.0469 9.12904 21.4124 9.54558C21.7779 9.96212 21.888 10.5436 21.7421 11.2902C21.6821 11.5977 21.5806 11.8789 21.4377 12.1336C21.2947 12.3884 21.1077 12.6216 20.8768 12.8329C20.6016 13.0893 20.2959 13.272 19.9596 13.3808C19.6232 13.4899 19.1948 13.5443 18.674 13.5443H17.4936L17.1668 15.2186H15.7887L17.0182 8.92081H19.6682" fill="white"/>
<defs>
<radialGradient id="paint0_radial_95_84" cx="0" cy="0" r="1" gradientUnits="userSpaceOnUse" gradientTransform="translate(8.53978 7.55027) scale(15.7577 15.9732)">
<stop stop-color="#AEB2D5"/>
<stop offset="0.3" stop-color="#AEB2D5"/>
<stop offset="0.75" stop-color="#484C89"/>
<stop offset="1" stop-color="#484C89"/>
</radialGradient>
</defs>
</svg>
