<svg width="20" height="19" viewBox="0 0 20 19" fill="none" xmlns="http://www.w3.org/2000/svg">
<g clip-path="url(#clip0_95_148)">
<path d="M10.2 7.76587C9.19491 7.76587 8.38013 8.6237 8.38013 9.68188C8.38013 10.7401 9.19491 11.5979 10.2 11.5979C11.2051 11.5979 12.0198 10.7401 12.0198 9.68188C12.0198 8.6237 11.2051 7.76587 10.2 7.76587Z" fill="#087EA4"/>
<path d="M19.6653 9.69926C19.6653 8.19504 18.3422 6.87576 16.2357 6.00754C16.2638 5.81201 16.2893 5.6186 16.3074 5.42872C16.5152 3.26733 16.0205 1.70734 14.9153 1.03535C13.6787 0.283593 11.932 0.829235 10.166 2.31722C8.39987 0.829235 6.65322 0.283593 5.41663 1.03535C4.3114 1.70734 3.81676 3.26733 4.02453 5.42872C4.04263 5.6186 4.06743 5.81272 4.09625 6.00895C3.92065 6.07954 3.7484 6.15436 3.58285 6.23271C1.70215 7.12282 0.666626 8.35528 0.666626 9.69926C0.666626 11.2035 1.98968 12.5228 4.09625 13.391C4.06743 13.5865 4.04263 13.7799 4.02453 13.9698C3.81676 16.1312 4.3114 17.6912 5.41663 18.3632C5.79662 18.59 6.22719 18.706 6.66395 18.6992C7.71086 18.6992 8.93338 18.1189 10.166 17.0813C11.3979 18.1189 12.621 18.6992 13.6693 18.6992C14.106 18.7059 14.5366 18.5899 14.9166 18.3632C16.0219 17.6912 16.5165 16.1312 16.3087 13.9698C16.2906 13.7799 16.2652 13.5865 16.237 13.391C18.3436 12.5242 19.6666 11.2028 19.6666 9.69926M13.6613 1.65229C13.9421 1.64515 14.2197 1.71677 14.4656 1.85981C15.233 2.3264 15.5775 3.59203 15.4099 5.33201C15.3985 5.4506 15.3851 5.5706 15.369 5.6913C14.4931 5.4135 13.5962 5.21536 12.6881 5.09908C12.1376 4.32843 11.5254 3.60887 10.8583 2.94827C11.9059 2.09558 12.8891 1.65229 13.6606 1.65229M13.3007 11.6051C12.9617 12.2248 12.5926 12.8256 12.1948 13.4051C11.5205 13.4781 10.8431 13.5143 10.1653 13.5138C9.48769 13.5143 8.81052 13.478 8.13647 13.4051C7.73973 12.8255 7.37172 12.2247 7.03392 11.6051C6.69495 10.9872 6.38689 10.3511 6.111 9.69926C6.38689 9.04747 6.69495 8.41132 7.03392 7.7934C7.37119 7.17628 7.73807 6.57763 8.13311 5.99977C8.8084 5.92502 9.48695 5.88779 10.166 5.88824C10.8436 5.88781 11.5207 5.9241 12.1948 5.99695C12.5912 6.57569 12.9594 7.17528 13.298 7.7934C13.6367 8.41147 13.9447 9.04761 14.2209 9.69926C13.9447 10.3509 13.6367 10.9871 13.298 11.6051M14.682 10.8993C14.8948 11.5101 15.0694 12.135 15.2048 12.7698C14.6171 12.9628 14.0179 13.1149 13.4113 13.2251C13.6418 12.859 13.8652 12.4781 14.0815 12.0823C14.2953 11.6912 14.4957 11.2967 14.6847 10.9021M8.89317 14.4237C9.31006 14.4505 9.73566 14.466 10.1666 14.466C10.5976 14.466 11.0259 14.4505 11.4434 14.4237C11.0475 14.9231 10.621 15.3947 10.1666 15.8354C9.71322 15.3948 9.28781 14.9232 8.89317 14.4237ZM6.92132 13.2237C6.31444 13.114 5.71507 12.9623 5.12708 12.7698C5.26197 12.136 5.43593 11.5121 5.64786 10.9021C5.83419 11.2967 6.03392 11.6912 6.25108 12.0823C6.46823 12.4734 6.69277 12.8588 6.92132 13.2251M5.64786 8.49575C5.43669 7.888 5.26318 7.26647 5.12842 6.63506C5.71495 6.44232 6.31272 6.28977 6.91797 6.17836C6.68874 6.5433 6.46421 6.92165 6.24773 7.31623C6.03124 7.71081 5.83352 8.10046 5.64451 8.49575M11.4394 4.97414C11.0225 4.94731 10.5969 4.93178 10.1626 4.93178C9.73186 4.93178 9.30738 4.9459 8.88915 4.97414C9.28379 4.47467 9.7092 4.00306 10.1626 3.56238C10.6172 4.00295 11.0437 4.47455 11.4394 4.97414ZM14.0802 7.31623C13.863 6.92 13.6385 6.53883 13.4066 6.17271C14.0149 6.28295 14.6156 6.43527 15.2048 6.62871C15.0696 7.26245 14.8957 7.88634 14.6841 8.49645C14.4977 8.10187 14.2973 7.70728 14.0808 7.31694M4.92467 5.33272C4.7551 3.59344 5.10161 2.3271 5.86837 1.86052C6.11434 1.7177 6.39186 1.6461 6.67266 1.65299C7.44411 1.65299 8.42735 2.09628 9.47494 2.94898C8.80738 3.61004 8.19478 4.33008 7.64384 5.10119C6.736 5.21803 5.83915 5.41543 4.96287 5.6913C4.94746 5.5706 4.93338 5.45131 4.92266 5.33272M3.95416 7.10164C4.05738 7.05459 4.1626 7.00753 4.26984 6.96047C4.48067 7.8972 4.76655 8.81342 5.1244 9.69926C4.76587 10.5869 4.47976 11.505 4.26917 12.4437C2.5614 11.7061 1.57145 10.684 1.57145 9.69926C1.57145 8.7661 2.44277 7.81952 3.95416 7.10164ZM5.86837 17.538C5.10161 17.0714 4.7551 15.8051 4.92467 14.0658C4.93539 13.9472 4.94947 13.8279 4.96488 13.7065C5.84083 13.9843 6.73777 14.1824 7.64585 14.2987C8.19651 15.0697 8.80865 15.7897 9.47561 16.451C8.01515 17.639 6.6807 18.0307 5.87038 17.538M15.4093 14.0658C15.5768 15.8058 15.2323 17.0714 14.4649 17.538C13.6552 18.0321 12.3201 17.639 10.8603 16.451C11.5271 15.7897 12.139 15.0697 12.6894 14.2987C13.5975 14.1825 14.4945 13.9843 15.3704 13.7065C15.3865 13.8279 15.3999 13.9472 15.4113 14.0658M16.0668 12.4423C15.8556 11.5041 15.5693 10.5865 15.2109 9.69926C15.5691 8.81156 15.8552 7.89346 16.0661 6.95482C17.7705 7.69246 18.7631 8.71457 18.7631 9.69926C18.7631 10.684 17.7732 11.7061 16.0654 12.4437" fill="#087EA4"/>
</g>
<defs>
<clipPath id="clip0_95_148">
<rect width="19" height="18" fill="white" transform="translate(0.666626 0.699463)"/>
</clipPath>
</defs>
</svg>
