<svg width="20" height="20" viewBox="0 0 20 20" fill="none" xmlns="http://www.w3.org/2000/svg">
<path fill-rule="evenodd" clip-rule="evenodd" d="M19.1112 5.42775L14.9215 1.239C14.6402 0.957625 14.2586 0.799543 13.8607 0.799543C13.4628 0.799543 13.0812 0.957625 12.7999 1.239L1.23961 12.7993C0.957034 13.0797 0.798655 13.4616 0.799927 13.8596V18.0493C0.799927 18.8777 1.4715 19.5493 2.29993 19.5493H18.0499C18.4641 19.5493 18.7999 19.2135 18.7999 18.7993C18.7999 18.3851 18.4641 18.0493 18.0499 18.0493H8.61118L19.1112 7.54932C19.3926 7.268 19.5506 6.88642 19.5506 6.48853C19.5506 6.09065 19.3926 5.70907 19.1112 5.42775ZM10.5499 5.60963L12.1146 7.17432L4.17493 15.114L2.61024 13.5493L10.5499 5.60963ZM2.29993 18.0493V15.3596L4.98961 18.0493H2.29993ZM6.79993 17.739L5.23618 16.1743L13.1749 8.23463L14.7396 9.79932L6.79993 17.739ZM15.7999 8.739L11.6112 4.54932L13.8612 2.29932L18.0499 6.489L15.7999 8.739Z" fill="#FF4D4D"/>
</svg>
