<svg width="21" height="21" viewBox="0 0 21 21" fill="none" xmlns="http://www.w3.org/2000/svg">
<path fill-rule="evenodd" clip-rule="evenodd" d="M10.2 6.04932C7.71467 6.04932 5.69995 8.06404 5.69995 10.5493C5.69995 13.0346 7.71467 15.0493 10.2 15.0493C12.6852 15.0493 14.7 13.0346 14.7 10.5493C14.6974 8.06511 12.6842 6.0519 10.2 6.04932ZM10.2 13.5493C8.5431 13.5493 7.19995 12.2062 7.19995 10.5493C7.19995 8.89246 8.5431 7.54932 10.2 7.54932C11.8568 7.54932 13.2 8.89246 13.2 10.5493C13.2 12.2062 11.8568 13.5493 10.2 13.5493ZM18.45 10.7518C18.4537 10.6168 18.4537 10.4818 18.45 10.3468L19.8487 8.59932C19.9974 8.41325 20.0489 8.16758 19.9875 7.93744C19.7581 7.07551 19.4151 6.24793 18.9675 5.4765C18.8486 5.27181 18.6401 5.13524 18.405 5.10807L16.1812 4.86057C16.0887 4.76307 15.995 4.66932 15.9 4.57932L15.6375 2.34994C15.6101 2.11463 15.4731 1.90608 15.2681 1.78744C14.4964 1.34058 13.6688 0.997911 12.8071 0.768379C12.5768 0.707153 12.3312 0.759003 12.1453 0.908067L10.4025 2.29932C10.2675 2.29932 10.1325 2.29932 9.99745 2.29932L8.24995 0.903379C8.06388 0.754642 7.81822 0.703143 7.58808 0.764629C6.72628 0.994342 5.89875 1.33733 5.12714 1.78463C4.92244 1.90348 4.78587 2.11199 4.7587 2.34713L4.5112 4.57463C4.4137 4.66775 4.31995 4.7615 4.22995 4.85588L2.00058 5.11182C1.76526 5.13919 1.55672 5.27614 1.43808 5.48119C0.991214 6.25291 0.648546 7.08042 0.419014 7.94213C0.357788 8.17242 0.409638 8.4181 0.558701 8.604L1.94995 10.3468C1.94995 10.4818 1.94995 10.6168 1.94995 10.7518L0.554014 12.4993C0.405277 12.6854 0.353778 12.9311 0.415264 13.1612C0.644566 14.0231 0.987578 14.8507 1.43526 15.6221C1.55412 15.8268 1.76263 15.9634 1.99776 15.9906L4.22151 16.2381C4.31464 16.3356 4.40839 16.4293 4.50276 16.5193L4.76245 18.7487C4.78983 18.984 4.92677 19.1926 5.13183 19.3112C5.90354 19.7581 6.73105 20.1007 7.59276 20.3303C7.82305 20.3915 8.06873 20.3396 8.25464 20.1906L9.99745 18.7993C10.1325 18.8031 10.2675 18.8031 10.4025 18.7993L12.15 20.1981C12.336 20.3468 12.5817 20.3983 12.8118 20.3368C13.6738 20.1075 14.5013 19.7645 15.2728 19.3168C15.4775 19.198 15.614 18.9895 15.6412 18.7543L15.8887 16.5306C15.9862 16.4381 16.08 16.3443 16.17 16.2493L18.3993 15.9868C18.6346 15.9594 18.8432 15.8225 18.9618 15.6174C19.4087 14.8457 19.7514 14.0182 19.9809 13.1565C20.0421 12.9262 19.9903 12.6805 19.8412 12.4946L18.45 10.7518ZM16.9406 10.1424C16.9565 10.4135 16.9565 10.6852 16.9406 10.9562C16.9294 11.1417 16.9875 11.3248 17.1037 11.4699L18.434 13.1321C18.2814 13.6173 18.0859 14.0879 17.85 14.5384L15.7312 14.7784C15.5467 14.7989 15.3763 14.887 15.2531 15.0259C15.0726 15.2288 14.8804 15.421 14.6775 15.6015C14.5386 15.7248 14.4504 15.8951 14.43 16.0796L14.1946 18.1965C13.7442 18.4326 13.2736 18.628 12.7884 18.7806L11.1253 17.4503C10.9922 17.3439 10.8269 17.2861 10.6565 17.2862H10.6115C10.3405 17.3021 10.0688 17.3021 9.79776 17.2862C9.61222 17.275 9.42913 17.3332 9.28401 17.4493L7.61714 18.7806C7.13201 18.6279 6.66141 18.4325 6.21089 18.1965L5.97089 16.0806C5.95041 15.8961 5.86222 15.7257 5.72339 15.6024C5.52043 15.422 5.32822 15.2298 5.14776 15.0268C5.02451 14.888 4.85415 14.7998 4.66964 14.7793L2.55276 14.5431C2.31669 14.0926 2.12123 13.622 1.9687 13.1368L3.29901 11.4737C3.41517 11.3286 3.47331 11.1455 3.46214 10.9599C3.4462 10.6889 3.4462 10.4172 3.46214 10.1462C3.47331 9.96064 3.41517 9.77756 3.29901 9.63244L1.9687 7.9665C2.12135 7.48138 2.31681 7.01078 2.55276 6.56025L4.6687 6.32025C4.85322 6.29977 5.02358 6.21159 5.14683 6.07275C5.32729 5.86979 5.51949 5.67759 5.72245 5.49713C5.86184 5.3738 5.95038 5.20305 5.97089 5.01807L6.2062 2.90213C6.65667 2.66606 7.12728 2.4706 7.61245 2.31807L9.27558 3.64838C9.42069 3.76454 9.60378 3.82267 9.78933 3.8115C10.0603 3.79557 10.3321 3.79557 10.6031 3.8115C10.7886 3.82267 10.9717 3.76454 11.1168 3.64838L12.7828 2.31807C13.2679 2.47072 13.7385 2.66617 14.189 2.90213L14.429 5.01807C14.4495 5.20258 14.5377 5.37294 14.6765 5.49619C14.8795 5.67665 15.0717 5.86886 15.2521 6.07182C15.3754 6.21065 15.5457 6.29883 15.7303 6.31932L17.8471 6.55463C18.0832 7.0051 18.2787 7.47571 18.4312 7.96088L17.1009 9.624C16.9836 9.77034 16.9254 9.95531 16.9378 10.1424H16.9406Z" fill="#FF4D4D"/>
</svg>
