<svg width="20" height="21" viewBox="0 0 20 21" fill="none" xmlns="http://www.w3.org/2000/svg">
<path fill-rule="evenodd" clip-rule="evenodd" d="M9.99994 0.799316C4.61516 0.799316 0.249939 5.16454 0.249939 10.5493C0.249939 15.9341 4.61516 20.2993 9.99994 20.2993C15.3847 20.2993 19.7499 15.9341 19.7499 10.5493C19.7443 5.1669 15.3824 0.805 9.99994 0.799316ZM18.2499 10.5493C18.2508 11.6077 18.047 12.6563 17.6499 13.6374L13.4593 11.0603C13.2811 10.9503 13.0818 10.8791 12.8743 10.8512L10.7349 10.5624C10.1322 10.4839 9.54111 10.7742 9.23494 11.2993H8.41744L8.06119 10.5624C7.8616 10.1466 7.48087 9.84655 7.02994 9.74963L6.27994 9.58744L7.01306 8.29932H8.57963C8.83312 8.29882 9.08239 8.23433 9.30431 8.11182L10.4528 7.47807C10.5536 7.42182 10.648 7.35454 10.734 7.27744L13.2568 4.99557C13.7778 4.52863 13.9049 3.76256 13.5624 3.15244L13.5287 3.0915C16.41 4.45774 18.2476 7.36047 18.2499 10.5493ZM11.4353 2.42494L12.2499 3.88369L9.72713 6.16557L8.57963 6.79932H7.01306C6.47638 6.79853 5.98016 7.08453 5.71181 7.54932L4.89338 8.97713L3.94181 6.44213L4.96744 4.01682C6.80311 2.59846 9.15172 2.01981 11.4362 2.42307L11.4353 2.42494ZM1.74994 10.5493C1.74869 9.32308 2.02227 8.11216 2.55056 7.00557L3.61369 9.84338C3.79372 10.3208 4.20412 10.674 4.70306 10.7809L6.71213 11.2131L7.06931 11.9556C7.32218 12.4707 7.84545 12.7978 8.41931 12.7993H8.55806L7.88025 14.3209C7.63615 14.8685 7.74158 15.5089 8.14838 15.9493L8.1615 15.9624L9.99994 17.8562L9.81806 18.7937C5.33743 18.6894 1.75737 15.0312 1.74994 10.5493ZM11.3668 18.6849L11.4728 18.1403C11.561 17.671 11.422 17.1877 11.0978 16.8371C11.0931 16.833 11.0888 16.8286 11.0846 16.824L9.24994 14.9312L10.5343 12.0493L12.6737 12.3381L16.9599 14.9743C15.7042 16.9465 13.672 18.2946 11.3668 18.6849Z" fill="#FF4D4D"/>
</svg>
