<svg width="31" height="19" viewBox="0 0 31 19" fill="none" xmlns="http://www.w3.org/2000/svg">
<g clip-path="url(#clip0_95_131)">
<path d="M3.11761 0.699463H27.5369C29.0824 0.699463 30.3334 1.96041 30.3334 3.51821V12.9137C30.3334 14.4715 29.0824 15.7325 27.5369 15.7325H18.7798L19.9818 18.6995L14.6956 15.7325H3.12979C1.58444 15.7325 0.333464 14.4715 0.333464 12.9137V3.51821C0.321159 1.97282 1.57202 0.699463 3.11761 0.699463Z" fill="#9B5C8F"/>
<path d="M2.53546 3.60722C2.69986 3.37197 2.9464 3.24828 3.2752 3.22354C3.87413 3.17395 4.21466 3.47093 4.2968 4.11459C4.66081 6.7014 5.06002 8.89215 5.48269 10.6867L8.05419 5.52562C8.28911 5.05524 8.5827 4.80774 8.93497 4.783C9.45164 4.74589 9.76859 5.09235 9.89779 5.8226C10.1914 7.46864 10.5671 8.86729 11.0133 10.0554C11.3186 6.91179 11.8353 4.64682 12.5633 3.24828C12.7393 2.90171 12.9977 2.72842 13.3382 2.70357C13.6083 2.67895 13.8549 2.76553 14.078 2.95119C14.301 3.13684 14.4185 3.37197 14.442 3.6567C14.4537 3.87946 14.4185 4.06512 14.3246 4.25077C13.8666 5.14194 13.4908 6.63955 13.1856 8.71875C12.8921 10.7362 12.7863 12.3082 12.8568 13.4345C12.8803 13.7437 12.8333 14.016 12.7159 14.2513C12.5749 14.5235 12.3637 14.6721 12.0935 14.6968C11.7882 14.7216 11.4713 14.5731 11.1659 14.2389C10.0739 13.063 9.20498 11.3055 8.57097 8.96637C7.80764 10.5506 7.24404 11.7387 6.88003 12.5308C6.18723 13.9295 5.60015 14.6473 5.10696 14.6844C4.78989 14.7092 4.51988 14.4245 4.28507 13.8305C3.68626 12.2091 3.04039 9.07769 2.3477 4.43643C2.30065 4.11459 2.37106 3.82987 2.53546 3.60722ZM27.7693 5.55036C27.3466 4.77063 26.7242 4.30037 25.8906 4.11459C25.6674 4.06512 25.4562 4.04038 25.2565 4.04038C24.1292 4.04038 23.2134 4.65919 22.4971 5.89693C21.8864 6.9489 21.5812 8.1123 21.5812 9.38715C21.5812 10.3402 21.7691 11.157 22.1448 11.8378C22.5675 12.6175 23.1899 13.0878 24.0235 13.2734C24.2466 13.323 24.4579 13.3478 24.6576 13.3478C25.7966 13.3478 26.7125 12.7289 27.417 11.4912C28.0276 10.4267 28.3329 9.26334 28.3329 7.98861C28.3446 7.02323 28.145 6.21865 27.7693 5.55036ZM26.2898 8.97873C26.1254 9.79557 25.8318 10.402 25.3973 10.8104C25.0569 11.1323 24.7398 11.2683 24.4463 11.2065C24.1644 11.1446 23.9295 10.8848 23.7535 10.402C23.6125 10.0183 23.5422 9.63465 23.5422 9.27571C23.5422 8.96637 23.5656 8.6569 23.6243 8.37229C23.73 7.8648 23.9296 7.36968 24.2466 6.89942C24.6342 6.29286 25.0451 6.04548 25.4678 6.13206C25.7497 6.19391 25.9846 6.4539 26.1606 6.93653C26.3015 7.32021 26.3719 7.70389 26.3719 8.06283C26.3719 8.38466 26.3485 8.69413 26.2898 8.97873ZM20.4187 5.55036C19.996 4.77063 19.3619 4.30037 18.54 4.11459C18.3169 4.06512 18.1056 4.04038 17.9059 4.04038C16.7786 4.04038 15.8628 4.65919 15.1465 5.89693C14.536 6.9489 14.2306 8.1123 14.2306 9.38715C14.2306 10.3402 14.4185 11.157 14.7942 11.8378C15.2169 12.6175 15.8393 13.0878 16.6729 13.2734C16.8961 13.323 17.1073 13.3478 17.3071 13.3478C18.446 13.3478 19.3619 12.7289 20.0664 11.4912C20.6771 10.4267 20.9823 9.26334 20.9823 7.98861C20.9823 7.02323 20.7944 6.21865 20.4187 5.55036ZM18.9275 8.97873C18.7631 9.79557 18.4695 10.402 18.0351 10.8104C17.6945 11.1323 17.3775 11.2683 17.0839 11.2065C16.8021 11.1446 16.5673 10.8848 16.3911 10.402C16.2502 10.0183 16.1798 9.63465 16.1798 9.27571C16.1798 8.96637 16.2033 8.6569 16.262 8.37229C16.3677 7.8648 16.5673 7.36968 16.8844 6.89942C17.2718 6.29286 17.6828 6.04548 18.1055 6.13206C18.3873 6.19391 18.6222 6.4539 18.7983 6.93653C18.9393 7.32021 19.0096 7.70389 19.0096 8.06283C19.0215 8.38466 18.9861 8.69413 18.9275 8.97873Z" fill="white"/>
</g>
<defs>
<clipPath id="clip0_95_131">
<rect width="30" height="18" fill="white" transform="translate(0.333374 0.699463)"/>
</clipPath>
</defs>
</svg>
