<svg width="18" height="19" viewBox="0 0 18 19" fill="none" xmlns="http://www.w3.org/2000/svg">
<g clip-path="url(#clip0_95_79)">
<rect y="0.199463" width="18" height="18" rx="9" fill="white"/>
<path d="M9 0.84232C10.9281 0.843314 12.7966 1.51078 14.2889 2.73164C15.7813 3.95251 16.8057 5.6517 17.1887 7.54138C17.5717 9.43106 17.2896 11.395 16.3904 13.1006C15.4912 14.8062 14.03 16.1485 12.2545 16.9001C10.2121 17.7632 7.91057 17.7797 5.85609 16.9459C3.80161 16.1121 2.16251 14.4963 1.29937 12.4539C0.436237 10.4116 0.419765 8.11003 1.25358 6.05555C2.0874 4.00107 3.7032 2.36198 5.74554 1.49884C6.77511 1.06318 7.88205 0.839881 9 0.84232ZM9 0.199463C4.02951 0.199463 0 4.22897 0 9.19946C0 14.17 4.02951 18.1995 9 18.1995C13.9705 18.1995 18 14.17 18 9.19946C18 4.22897 13.9705 0.199463 9 0.199463Z" fill="#007298"/>
<path d="M9.10547 9.7373L7.95235 13.1018H7.94883L7.05586 15.6717C7.11914 15.6893 7.17891 15.7033 7.24219 15.7209H7.25274C7.82044 15.8723 8.40543 15.9491 8.99297 15.9494C9.28599 15.9516 9.57871 15.9304 9.86836 15.8861C10.256 15.8375 10.6384 15.754 11.0109 15.6365C11.1023 15.6084 11.1938 15.5768 11.2852 15.5451C11.1867 15.3342 10.9758 14.8666 10.9652 14.8455L9.10547 9.7373Z" fill="#007298"/>
<path d="M2.84063 6.54517C2.48906 7.3397 2.25 8.31704 2.25 9.19946C2.25 9.42095 2.26055 9.64243 2.28164 9.8604C2.52422 12.3635 4.14141 14.4659 6.36328 15.4116C6.45469 15.4502 6.54961 15.4889 6.64453 15.5241L3.375 6.54868C3.09375 6.53813 3.04102 6.55571 2.84063 6.54517Z" fill="#007298"/>
<path d="M15.1242 6.36588C14.973 6.04026 14.7954 5.7275 14.5934 5.43072C14.5371 5.34635 14.4738 5.26197 14.4141 5.1776C13.6523 4.15516 12.6178 3.36806 11.4293 2.9065C10.6541 2.60328 9.82888 2.44825 8.99648 2.44947C7.98812 2.44949 6.99264 2.67601 6.08355 3.1123C5.17446 3.54859 4.37498 4.18351 3.74414 4.97017C3.51562 5.25345 3.30989 5.5544 3.12891 5.87017C3.62813 5.87369 4.24688 5.87369 4.31719 5.87369C4.95352 5.87369 5.93438 5.79635 5.93438 5.79635C6.26484 5.77525 6.3 6.25689 5.97305 6.29556C5.97305 6.29556 5.64258 6.33424 5.27695 6.35181L7.48828 12.926L8.81719 8.94283L7.875 6.35533C7.54453 6.33775 7.23867 6.29908 7.23867 6.29908C6.9082 6.2815 6.95039 5.77877 7.27383 5.79986C7.27383 5.79986 8.27578 5.8772 8.87344 5.8772C9.50977 5.8772 10.4906 5.79986 10.4906 5.79986C10.8176 5.77877 10.8598 6.26041 10.5293 6.29908C10.5293 6.29908 10.2023 6.33775 9.83672 6.35533L12.027 12.8803L12.6352 10.8553C12.941 10.0678 13.0957 9.41744 13.0957 8.89713C13.0957 8.1483 12.825 7.62799 12.593 7.22369C12.2871 6.72095 11.9988 6.29908 11.9988 5.80338C11.9988 5.24439 12.4207 4.72408 13.0184 4.72408H13.0957C14.0168 4.69947 14.3191 5.61353 14.3578 6.2358V6.25689C14.3719 6.51002 14.3613 6.69635 14.3613 6.91783C14.3613 7.52955 14.2453 8.22213 13.9008 9.09049L12.5297 13.0561L11.7457 15.3659C11.809 15.3378 11.8688 15.3096 11.932 15.278C13.9254 14.3147 15.3773 12.3952 15.6832 10.1206C15.7286 9.818 15.7509 9.51244 15.75 9.2065C15.7513 8.22529 15.5377 7.2557 15.1242 6.36588Z" fill="#007298"/>
</g>
<defs>
<clipPath id="clip0_95_79">
<rect y="0.199463" width="18" height="18" rx="9" fill="white"/>
</clipPath>
</defs>
</svg>
